<svg xmlns="http://www.w3.org/2000/svg" xmlns:xlink="http://www.w3.org/1999/xlink" width="250" zoomAndPan="magnify" viewBox="0 0 375 374.999991" height="250" preserveAspectRatio="xMidYMid meet" version="1.0"><defs><g/><clipPath id="id1"><path d="M 148.988281 152.617188 L 198.894531 152.617188 L 198.894531 202.605469 L 148.988281 202.605469 Z M 148.988281 152.617188 " clip-rule="nonzero"/></clipPath><clipPath id="id2"><path d="M 147.167969 111.878906 L 236.417969 111.878906 L 236.417969 193.507812 L 147.167969 193.507812 Z M 147.167969 111.878906 " clip-rule="nonzero"/></clipPath></defs><path fill="#8bd029" d="M 209.820312 152.679688 L 209.820312 174.566406 L 223.539062 174.566406 C 225.398438 174.566406 226.90625 173.058594 226.90625 171.199219 L 226.90625 156.046875 C 226.90625 154.1875 225.398438 152.679688 223.539062 152.679688 L 209.820312 152.679688 " fill-opacity="1" fill-rule="nonzero"/><path fill="#8bd029" d="M 175.773438 155.011719 C 183.3125 162.554688 191.289062 168.660156 198.882812 173.007812 L 198.882812 128.007812 C 198.882812 126.144531 197.378906 124.636719 195.519531 124.636719 L 180.378906 124.636719 C 178.519531 124.636719 177.011719 126.144531 177.011719 128.007812 L 177.011719 152.679688 L 173.503906 152.679688 C 174.246094 153.460938 175.003906 154.238281 175.773438 155.011719 " fill-opacity="1" fill-rule="nonzero"/><g clip-path="url(#id1)"><path fill="#25458b" d="M 175.347656 161.902344 C 172.332031 158.882812 169.539062 155.792969 166.988281 152.679688 L 152.355469 152.679688 C 150.496094 152.679688 148.992188 154.1875 148.992188 156.046875 L 148.992188 171.199219 C 148.992188 173.058594 150.496094 174.566406 152.355469 174.566406 L 177.011719 174.566406 L 177.011719 199.238281 C 177.011719 201.097656 178.519531 202.605469 180.378906 202.605469 L 195.519531 202.605469 C 197.378906 202.605469 198.882812 201.097656 198.882812 199.238281 L 198.882812 180.25 C 191.117188 175.78125 183.003906 169.5625 175.347656 161.902344 " fill-opacity="1" fill-rule="nonzero"/></g><path fill="#152953" d="M 198.882812 189.613281 L 198.882812 182.375 C 193.871094 178.824219 188.808594 174.585938 183.929688 169.742188 C 181.035156 167.332031 178.160156 164.714844 175.347656 161.902344 C 172.332031 158.882812 169.539062 155.792969 166.988281 152.679688 L 164.757812 152.679688 C 169.226562 160.453125 175.441406 168.566406 183.097656 176.230469 C 188.234375 181.371094 193.578125 185.863281 198.882812 189.613281 " fill-opacity="1" fill-rule="nonzero"/><g clip-path="url(#id2)"><path fill="#25458b" d="M 231.324219 159.664062 C 234.867188 169.363281 234.777344 177.578125 230.210938 182.148438 C 220.726562 191.636719 195.539062 181.816406 173.949219 160.214844 C 156.933594 143.1875 147.234375 123.921875 148.53125 111.878906 C 143.296875 123.804688 153.453125 147.019531 173.523438 167.105469 C 196.003906 189.601562 222.40625 199.652344 232.496094 189.558594 C 238.316406 183.730469 237.433594 172.46875 231.324219 159.664062 " fill-opacity="1" fill-rule="nonzero"/></g><g fill="#737373" fill-opacity="1"><g transform="translate(165.830896, 256.81573)"><g><path d="M 3.570312 0.101562 C 5.066406 0.101562 6.273438 -0.601562 6.273438 -2.070312 C 6.273438 -3.625 4.875 -3.984375 3.640625 -4.308594 C 2.648438 -4.566406 1.777344 -4.804688 1.777344 -5.65625 C 1.777344 -6.558594 2.582031 -6.914062 3.375 -6.914062 C 4.261719 -6.914062 5.011719 -6.519531 5.246094 -5.664062 L 6.152344 -5.898438 C 5.863281 -7.179688 4.683594 -7.753906 3.335938 -7.753906 C 1.976562 -7.753906 0.800781 -7.054688 0.800781 -5.640625 C 0.800781 -4.226562 1.984375 -3.863281 3.179688 -3.542969 C 4.246094 -3.253906 5.261719 -3.003906 5.277344 -2.042969 C 5.292969 -1.082031 4.449219 -0.734375 3.585938 -0.734375 C 2.546875 -0.734375 1.761719 -1.246094 1.527344 -2.152344 L 0.570312 -1.925781 C 0.832031 -0.65625 1.976562 0.101562 3.570312 0.101562 Z M 3.570312 0.101562 "/></g></g></g><g fill="#737373" fill-opacity="1"><g transform="translate(174.97022, 256.81573)"><g><path d="M 5.199219 -7.652344 L 0.304688 -7.652344 L 0.304688 -6.765625 L 2.273438 -6.765625 L 2.273438 0 L 3.238281 0 L 3.238281 -6.765625 L 5.199219 -6.765625 Z M 5.199219 -7.652344 "/></g></g></g><g fill="#737373" fill-opacity="1"><g transform="translate(182.708546, 256.81573)"><g><path d="M 4.476562 0.101562 C 6.613281 0.101562 8.277344 -1.378906 8.277344 -3.832031 C 8.277344 -6.273438 6.613281 -7.753906 4.476562 -7.753906 C 2.320312 -7.753906 0.667969 -6.273438 0.667969 -3.832031 C 0.667969 -1.378906 2.320312 0.101562 4.476562 0.101562 Z M 4.476562 -0.816406 C 2.890625 -0.816406 1.636719 -1.902344 1.636719 -3.832031 C 1.636719 -5.738281 2.890625 -6.824219 4.476562 -6.824219 C 6.054688 -6.824219 7.304688 -5.738281 7.304688 -3.832031 C 7.304688 -1.902344 6.054688 -0.816406 4.476562 -0.816406 Z M 4.476562 -0.816406 "/></g></g></g><g fill="#737373" fill-opacity="1"><g transform="translate(193.884197, 256.81573)"><g><path d="M 6.476562 0 L 4.570312 -3.074219 C 4.960938 -3.167969 5.277344 -3.324219 5.53125 -3.542969 C 6.054688 -3.945312 6.308594 -4.601562 6.308594 -5.429688 C 6.308594 -6.253906 6.039062 -6.84375 5.488281 -7.195312 C 5.042969 -7.503906 4.414062 -7.652344 3.554688 -7.652344 L 1.199219 -7.652344 L 1.199219 0 L 2.171875 0 L 2.171875 -2.972656 L 3.621094 -2.972656 L 5.34375 0 Z M 2.171875 -6.808594 L 3.429688 -6.808594 C 4.097656 -6.808594 4.582031 -6.738281 4.90625 -6.472656 C 5.164062 -6.261719 5.316406 -5.914062 5.316406 -5.390625 C 5.316406 -4.847656 5.171875 -4.484375 4.921875 -4.238281 C 4.613281 -3.921875 4.113281 -3.820312 3.429688 -3.820312 L 2.171875 -3.820312 Z M 2.171875 -6.808594 "/></g></g></g><g fill="#737373" fill-opacity="1"><g transform="translate(203.197287, 256.81573)"><g><path d="M 5.304688 -6.765625 L 5.304688 -7.652344 L 1.199219 -7.652344 L 1.199219 0 L 5.304688 0 L 5.304688 -0.886719 L 2.195312 -0.886719 L 2.195312 -3.386719 L 4.933594 -3.386719 L 4.933594 -4.261719 L 2.195312 -4.261719 L 2.195312 -6.765625 Z M 5.304688 -6.765625 "/></g></g></g><g fill="#022179" fill-opacity="1"><g transform="translate(85.700462, 238.922312)"><g><path d="M 2.515625 -19.203125 L 10.390625 -19.203125 C 13.265625 -19.203125 15.632812 -18.296875 17.5 -16.484375 C 19.375 -14.671875 20.3125 -12.375 20.3125 -9.59375 C 20.3125 -6.8125 19.367188 -4.515625 17.484375 -2.703125 C 15.609375 -0.898438 13.21875 0 10.3125 0 L 2.515625 0 Z M 5.765625 -16.28125 L 5.765625 -2.90625 L 10.46875 -2.90625 C 12.351562 -2.90625 13.921875 -3.53125 15.171875 -4.78125 C 16.429688 -6.03125 17.0625 -7.625 17.0625 -9.5625 C 17.0625 -11.507812 16.414062 -13.113281 15.125 -14.375 C 13.832031 -15.644531 12.238281 -16.28125 10.34375 -16.28125 Z M 5.765625 -16.28125 "/></g></g></g><g fill="#022179" fill-opacity="1"><g transform="translate(107.885141, 238.922312)"><g><path d="M 5.765625 0 L 2.515625 0 L 2.515625 -19.203125 L 5.765625 -19.203125 Z M 5.765625 0 "/></g></g></g><g fill="#022179" fill-opacity="1"><g transform="translate(117.099294, 238.922312)"><g><path d="M 15.65625 -9.4375 L 18.484375 -9.4375 L 18.484375 -2.359375 C 17.492188 -1.609375 16.328125 -1.003906 14.984375 -0.546875 C 13.640625 -0.0859375 12.320312 0.140625 11.03125 0.140625 C 8.1875 0.140625 5.789062 -0.796875 3.84375 -2.671875 C 1.90625 -4.546875 0.9375 -6.851562 0.9375 -9.59375 C 0.9375 -12.34375 1.921875 -14.644531 3.890625 -16.5 C 5.867188 -18.351562 8.3125 -19.28125 11.21875 -19.28125 C 12.570312 -19.28125 13.898438 -19.035156 15.203125 -18.546875 C 16.515625 -18.066406 17.644531 -17.414062 18.59375 -16.59375 L 16.75 -14.203125 C 15.175781 -15.660156 13.332031 -16.390625 11.21875 -16.390625 C 9.257812 -16.390625 7.601562 -15.734375 6.25 -14.421875 C 4.894531 -13.109375 4.21875 -11.5 4.21875 -9.59375 C 4.21875 -7.675781 4.898438 -6.054688 6.265625 -4.734375 C 7.628906 -3.421875 9.289062 -2.765625 11.25 -2.765625 C 12.726562 -2.765625 14.195312 -3.203125 15.65625 -4.078125 Z M 15.65625 -9.4375 "/></g></g></g><g fill="#022179" fill-opacity="1"><g transform="translate(138.571007, 238.922312)"><g><path d="M 5.765625 0 L 2.515625 0 L 2.515625 -19.203125 L 5.765625 -19.203125 Z M 5.765625 0 "/></g></g></g><g fill="#022179" fill-opacity="1"><g transform="translate(147.785159, 238.922312)"><g><path d="M 8.421875 -7.265625 L 1.671875 -7.265625 L 1.671875 -9.4375 L 8.421875 -9.4375 Z M 8.421875 -7.265625 "/></g></g></g><g fill="#022179" fill-opacity="1"><g transform="translate(158.809161, 238.922312)"><g><path d="M 2.515625 -19.203125 L 10.171875 -19.203125 C 12.585938 -19.203125 14.457031 -18.628906 15.78125 -17.484375 C 17.101562 -16.335938 17.765625 -14.722656 17.765625 -12.640625 C 17.765625 -10.460938 17.101562 -8.773438 15.78125 -7.578125 C 14.457031 -6.378906 12.585938 -5.78125 10.171875 -5.78125 L 5.765625 -5.78125 L 5.765625 0 L 2.515625 0 Z M 5.765625 -16.28125 L 5.765625 -8.6875 L 10.03125 -8.6875 C 13.125 -8.6875 14.671875 -9.976562 14.671875 -12.5625 C 14.671875 -15.039062 13.125 -16.28125 10.03125 -16.28125 Z M 5.765625 -16.28125 "/></g></g></g><g fill="#022179" fill-opacity="1"><g transform="translate(178.196812, 238.922312)"><g><path d="M 19.171875 0 L 15.9375 0 L 15.9375 -7.953125 L 5.765625 -7.953125 L 5.765625 0 L 2.515625 0 L 2.515625 -19.203125 L 5.765625 -19.203125 L 5.765625 -10.859375 L 15.9375 -10.859375 L 15.9375 -19.203125 L 19.171875 -19.203125 Z M 19.171875 0 "/></g></g></g><g fill="#022179" fill-opacity="1"><g transform="translate(200.820247, 238.922312)"><g><path d="M 14.921875 -4.328125 L 5.234375 -4.328125 L 3.40625 0 L 0.03125 0 L 8.5 -19.203125 L 11.8125 -19.203125 L 20.203125 0 L 16.75 0 Z M 13.6875 -7.21875 L 10.0625 -15.734375 L 6.4375 -7.21875 Z M 13.6875 -7.21875 "/></g></g></g><g fill="#022179" fill-opacity="1"><g transform="translate(221.990316, 238.922312)"><g><path d="M 14.703125 0 L 11.1875 -5.8125 C 11 -5.789062 10.707031 -5.78125 10.3125 -5.78125 L 5.765625 -5.78125 L 5.765625 0 L 2.515625 0 L 2.515625 -19.203125 L 10.3125 -19.203125 C 12.757812 -19.203125 14.660156 -18.628906 16.015625 -17.484375 C 17.367188 -16.335938 18.046875 -14.722656 18.046875 -12.640625 C 18.046875 -11.109375 17.703125 -9.8125 17.015625 -8.75 C 16.328125 -7.6875 15.34375 -6.910156 14.0625 -6.421875 L 18.375 0 Z M 5.765625 -8.6875 L 10.3125 -8.6875 C 13.414062 -8.6875 14.96875 -9.976562 14.96875 -12.5625 C 14.96875 -15.039062 13.414062 -16.28125 10.3125 -16.28125 L 5.765625 -16.28125 Z M 5.765625 -8.6875 "/></g></g></g><g fill="#022179" fill-opacity="1"><g transform="translate(242.749061, 238.922312)"><g><path d="M 22.8125 0 L 19.828125 0 L 19.796875 -14.34375 L 13.734375 -2 L 11.625 -2 L 5.5625 -14.34375 L 5.5625 0 L 2.515625 0 L 2.515625 -19.203125 L 6.359375 -19.203125 L 12.703125 -6.4375 L 19 -19.203125 L 22.8125 -19.203125 Z M 22.8125 0 "/></g></g></g><g fill="#022179" fill-opacity="1"><g transform="translate(269.047022, 238.922312)"><g><path d="M 14.921875 -4.328125 L 5.234375 -4.328125 L 3.40625 0 L 0.03125 0 L 8.5 -19.203125 L 11.8125 -19.203125 L 20.203125 0 L 16.75 0 Z M 13.6875 -7.21875 L 10.0625 -15.734375 L 6.4375 -7.21875 Z M 13.6875 -7.21875 "/></g></g></g></svg>